<svg xmlns="http://www.w3.org/2000/svg" width="1200" height="700" viewBox="0 0 1200 700">
  <rect width="1200" height="700" fill="#0a0a0f"/>
  <rect x="0" y="0" width="240" height="700" fill="rgba(255,255,255,0.03)" stroke="rgba(255,255,255,0.06)"/>
  <rect x="20" y="24" width="40" height="40" rx="10" fill="#00ff9d"/>
  <text x="72" y="52" fill="#fff" font-family="system-ui,sans-serif" font-size="16" font-weight="700">TECH<tspan fill="#00ff9d">OS</tspan></text>
  <rect x="16" y="100" width="208" height="40" rx="12" fill="rgba(0,255,157,0.1)" stroke="rgba(0,255,157,0.25)"/>
  <text x="56" y="126" fill="#00ff9d" font-family="system-ui,sans-serif" font-size="12">Overview</text>
  <text x="56" y="180" fill="#666" font-family="system-ui,sans-serif" font-size="12">User Mgmt</text>
  <text x="56" y="220" fill="#666" font-family="system-ui,sans-serif" font-size="12">System Logs</text>
  <text x="56" y="620" fill="#f44" font-family="system-ui,sans-serif" font-size="12">Logout</text>
  <text x="280" y="56" fill="#888" font-family="monospace,sans-serif" font-size="11">SYSTEM ADMINISTRATOR</text>
  <text x="280" y="96" fill="#fff" font-family="system-ui,sans-serif" font-size="28" font-weight="800">Dashboard Overview</text>
  <rect x="280" y="130" width="220" height="100" rx="12" fill="rgba(255,255,255,0.04)" stroke="rgba(255,255,255,0.08)"/>
  <rect x="520" y="130" width="220" height="100" rx="12" fill="rgba(255,255,255,0.04)" stroke="rgba(255,255,255,0.08)"/>
  <rect x="760" y="130" width="220" height="100" rx="12" fill="rgba(255,255,255,0.04)" stroke="rgba(255,255,255,0.08)"/>
  <rect x="1000" y="130" width="180" height="100" rx="12" fill="rgba(255,255,255,0.04)" stroke="rgba(255,255,255,0.08)"/>
  <rect x="280" y="260" width="900" height="380" rx="12" fill="rgba(255,255,255,0.03)" stroke="rgba(255,255,255,0.08)"/>
  <polyline points="320,520 400,440 520,480 640,360 760,400 880,340 1000,380" fill="none" stroke="#00ff9d" stroke-width="2"/>
  <text x="600" y="680" text-anchor="middle" fill="#444" font-family="system-ui,sans-serif" font-size="10">FAO-Blog · Admin dashboard (illustrative)</text>
</svg>
