<svg xmlns="http://www.w3.org/2000/svg" width="960" height="700" viewBox="0 0 960 700">
  <rect width="960" height="700" fill="#0a0a0f"/>
  <circle cx="100" cy="120" r="160" fill="#00ff9d" opacity="0.06"/>
  <circle cx="900" cy="600" r="180" fill="#3b82f6" opacity="0.06"/>
  <rect x="260" y="40" width="440" height="620" rx="16" fill="rgba(255,255,255,0.04)" stroke="rgba(255,255,255,0.1)"/>
  <text x="480" y="100" text-anchor="middle" fill="#fff" font-family="system-ui,sans-serif" font-size="22" font-weight="700">Create Account</text>
  <text x="480" y="128" text-anchor="middle" fill="#888" font-family="system-ui,sans-serif" font-size="12">Join our secure network</text>
  <rect x="300" y="160" width="360" height="36" rx="8" fill="#0a0a0f" stroke="rgba(255,255,255,0.12)"/>
  <text x="315" y="182" fill="#555" font-family="system-ui,sans-serif" font-size="10">Full Name</text>
  <rect x="300" y="220" width="360" height="36" rx="8" fill="#0a0a0f" stroke="rgba(255,255,255,0.12)"/>
  <text x="315" y="242" fill="#555" font-family="system-ui,sans-serif" font-size="10">Email</text>
  <text x="300" y="290" fill="#888" font-family="system-ui,sans-serif" font-size="10" font-weight="600">SELECT ROLE</text>
  <rect x="300" y="300" width="100" height="64" rx="8" fill="rgba(0,255,157,0.12)" stroke="#00ff9d"/>
  <rect x="420" y="300" width="100" height="64" rx="8" fill="rgba(255,255,255,0.03)" stroke="rgba(255,255,255,0.1)"/>
  <rect x="540" y="300" width="100" height="64" rx="8" fill="rgba(255,255,255,0.03)" stroke="rgba(255,255,255,0.1)"/>
  <text x="350" y="340" text-anchor="middle" fill="#00ff9d" font-family="system-ui,sans-serif" font-size="9" font-weight="700">ADMIN</text>
  <text x="470" y="340" text-anchor="middle" fill="#888" font-family="system-ui,sans-serif" font-size="9" font-weight="700">MGR</text>
  <text x="590" y="340" text-anchor="middle" fill="#888" font-family="system-ui,sans-serif" font-size="9" font-weight="700">USER</text>
  <rect x="300" y="390" width="360" height="36" rx="8" fill="#0a0a0f" stroke="rgba(255,255,255,0.12)"/>
  <text x="315" y="412" fill="#555" font-family="system-ui,sans-serif" font-size="10">Password</text>
  <rect x="300" y="460" width="360" height="44" rx="8" fill="#00ff9d"/>
  <text x="480" y="488" text-anchor="middle" fill="#000" font-family="system-ui,sans-serif" font-size="14" font-weight="600">Register</text>
  <text x="480" y="660" text-anchor="middle" fill="#444" font-family="system-ui,sans-serif" font-size="10">FAO-Blog · Register (illustrative)</text>
</svg>
